<svg width="1061" height="544" viewBox="0 0 1061 544" fill="none" xmlns="http://www.w3.org/2000/svg">
<path d="M971.422 498.687C976.071 498.687 979.84 500.321 982.667 503.651C985.557 506.918 987.002 510.814 987.002 515.275C987.002 515.715 986.939 516.406 986.876 517.223H959.297C960.114 523.569 965.077 527.59 971.799 527.59C976.573 527.59 980.154 525.454 981.913 522.249L985.557 524.386C982.793 528.847 977.83 531.611 971.736 531.611C966.773 531.611 962.752 530.041 959.674 526.962C956.596 523.883 955.025 519.925 955.025 515.149C955.025 510.437 956.533 506.541 959.611 503.4C962.689 500.258 966.584 498.687 971.422 498.687ZM971.422 502.708C964.888 502.708 960.114 506.981 959.297 513.201H982.73C982.29 509.871 981.034 507.295 978.898 505.473C976.762 503.651 974.249 502.708 971.422 502.708Z" fill="#F9FBFB"/>
<path d="M971.422 499.057C976.071 499.057 979.84 500.691 982.667 504.021C985.557 507.289 987.002 511.184 987.002 515.645C987.002 516.085 986.939 516.776 986.876 517.593H959.297C960.114 523.939 965.077 527.96 971.799 527.96C976.573 527.96 980.154 525.824 981.913 522.62L985.557 524.756C982.793 529.217 977.83 531.982 971.736 531.982C966.773 531.982 962.752 530.411 959.674 527.332C956.596 524.253 955.025 520.295 955.025 515.52C955.025 510.807 956.533 506.912 959.611 503.77C962.689 500.628 966.584 499.057 971.422 499.057ZM971.422 503.079C964.888 503.079 960.114 507.351 959.297 513.572H982.73C982.29 510.242 981.034 507.666 978.898 505.843C976.762 504.021 974.249 503.079 971.422 503.079Z" fill="#F9FBFB"/>
<path d="M944.342 530.857H940.196V484.99H944.342V530.857Z" fill="#F9FBFB"/>
<path d="M916.84 525.768L927.018 499.441H931.415L917.971 533.748C915.521 539.968 910.809 543.864 905.281 543.424V539.528C909.05 539.968 911.94 537.769 913.888 532.994L914.704 531.046L900.632 499.441H905.03L916.84 525.768Z" fill="#F9FBFB"/>
<path d="M893.108 499.441V503.462H884.061V522.501C884.061 527.904 887.077 527.465 893.108 527.213V530.857C884.313 532.177 879.915 529.789 879.915 522.501V503.462H873.319V499.441H879.915V491.901L884.061 490.645V499.441H893.108Z" fill="#F9FBFB"/>
<path d="M848.657 507.672C848.657 510.5 851.547 512.07 855.128 513.013C860.405 514.332 867.001 515.778 867.001 522.563C867.001 525.265 865.933 527.402 863.797 529.098C861.724 530.795 858.96 531.611 855.63 531.611C849.599 531.611 845.202 528.658 843.505 524.386L847.023 522.312C848.217 525.579 851.421 527.59 855.63 527.59C859.714 527.59 862.855 526.019 862.855 522.563C862.855 519.736 859.965 518.165 856.384 517.223C851.107 515.903 844.511 514.458 844.511 507.672C844.511 505.096 845.516 502.96 847.526 501.263C849.599 499.567 852.175 498.687 855.253 498.687C860.342 498.687 864.425 501.138 866.247 505.096L862.792 507.107C861.598 504.154 859.085 502.708 855.253 502.708C851.672 502.708 848.657 504.468 848.657 507.672Z" fill="#F9FBFB"/>
<path d="M820.672 498.687C825.321 498.687 829.091 500.321 831.918 503.651C834.807 506.918 836.252 510.814 836.252 515.275C836.252 515.715 836.189 516.406 836.127 517.223H808.548C809.364 523.569 814.327 527.59 821.049 527.59C825.824 527.59 829.405 525.454 831.164 522.249L834.807 524.386C832.043 528.847 827.08 531.611 820.986 531.611C816.023 531.611 812.003 530.041 808.925 526.962C805.846 523.883 804.276 519.925 804.276 515.149C804.276 510.437 805.783 506.541 808.862 503.4C811.94 500.258 815.835 498.687 820.672 498.687ZM820.672 502.708C814.139 502.708 809.364 506.981 808.548 513.201H831.98C831.541 509.871 830.284 507.295 828.148 505.473C826.012 503.651 823.499 502.708 820.672 502.708Z" fill="#F9FBFB"/>
<path d="M797.974 486.121V490.142C791.88 489.639 788.927 492.152 788.927 498.184V499.441H797.974V503.462H788.927V530.857H784.781V503.462H779.441V499.441H784.781V498.184C784.781 489.953 789.493 485.555 797.974 486.121Z" fill="#F9FBFB"/>
<path d="M769.763 493.975C768.569 495.168 766.685 495.168 765.491 493.975C764.297 492.781 764.297 490.896 765.491 489.702C766.685 488.508 768.569 488.508 769.763 489.702C770.957 490.896 770.957 492.781 769.763 493.975ZM769.7 530.857H765.554V499.441H769.7V530.857Z" fill="#F9FBFB"/>
<path d="M752.986 530.857H748.84V484.99H752.986V530.857Z" fill="#F9FBFB"/>
<path d="M712.67 505.599V499.441H716.816V530.857H712.67V524.7C709.78 529.287 705.571 531.611 699.98 531.611C695.52 531.611 691.687 530.041 688.483 526.836C685.342 523.632 683.772 519.736 683.772 515.149C683.772 510.562 685.342 506.667 688.483 503.462C691.687 500.258 695.52 498.687 699.98 498.687C705.571 498.687 709.78 501.012 712.67 505.599ZM691.499 524.009C693.886 526.396 696.839 527.59 700.294 527.59C703.749 527.59 706.702 526.396 709.089 524.009C711.476 521.558 712.67 518.605 712.67 515.149C712.67 511.693 711.476 508.74 709.089 506.353C706.702 503.902 703.749 502.708 700.294 502.708C696.839 502.708 693.886 503.902 691.499 506.353C689.112 508.74 687.918 511.693 687.918 515.149C687.918 518.605 689.112 521.558 691.499 524.009Z" fill="#F9FBFB"/>
<path d="M637.151 507.672C637.151 510.5 640.041 512.07 643.621 513.013C648.899 514.332 655.495 515.778 655.495 522.563C655.495 525.265 654.427 527.402 652.291 529.098C650.218 530.795 647.454 531.611 644.124 531.611C638.093 531.611 633.695 528.658 631.999 524.386L635.517 522.312C636.711 525.579 639.915 527.59 644.124 527.59C648.207 527.59 651.349 526.019 651.349 522.563C651.349 519.736 648.459 518.165 644.878 517.223C639.601 515.903 633.004 514.458 633.004 507.672C633.004 505.096 634.01 502.96 636.02 501.263C638.093 499.567 640.669 498.687 643.747 498.687C648.836 498.687 652.919 501.138 654.741 505.096L651.286 507.107C650.092 504.154 647.579 502.708 643.747 502.708C640.166 502.708 637.151 504.468 637.151 507.672Z" fill="#F9FBFB"/>
<path d="M617.189 505.599V499.441H621.336V530.857H617.189V524.7C614.3 529.287 610.09 531.611 604.499 531.611C600.039 531.611 596.207 530.041 593.003 526.836C589.862 523.632 588.291 519.736 588.291 515.149C588.291 510.562 589.862 506.667 593.003 503.462C596.207 500.258 600.039 498.687 604.499 498.687C610.09 498.687 614.3 501.012 617.189 505.599ZM596.018 524.009C598.405 526.396 601.358 527.59 604.813 527.59C608.269 527.59 611.221 526.396 613.608 524.009C615.996 521.558 617.189 518.605 617.189 515.149C617.189 511.693 615.996 508.74 613.608 506.353C611.221 503.902 608.269 502.708 604.813 502.708C601.358 502.708 598.405 503.902 596.018 506.353C593.631 508.74 592.437 511.693 592.437 515.149C592.437 518.605 593.631 521.558 596.018 524.009Z" fill="#F9FBFB"/>
<path d="M541.671 507.672C541.671 510.5 544.56 512.07 548.141 513.013C553.418 514.332 560.015 515.778 560.015 522.563C560.015 525.265 558.947 527.402 556.811 529.098C554.738 530.795 551.973 531.611 548.644 531.611C542.613 531.611 538.215 528.658 536.519 524.386L540.037 522.312C541.231 525.579 544.435 527.59 548.644 527.59C552.727 527.59 555.868 526.019 555.868 522.563C555.868 519.736 552.979 518.165 549.398 517.223C544.121 515.903 537.524 514.458 537.524 507.672C537.524 505.096 538.529 502.96 540.54 501.263C542.613 499.567 545.189 498.687 548.267 498.687C553.355 498.687 557.439 501.138 559.261 505.096L555.806 507.107C554.612 504.154 552.099 502.708 548.267 502.708C544.686 502.708 541.671 504.468 541.671 507.672Z" fill="#F9FBFB"/>
<path d="M511.275 507.672C511.275 510.5 514.165 512.07 517.746 513.013C523.023 514.332 529.619 515.778 529.619 522.563C529.619 525.265 528.551 527.402 526.415 529.098C524.342 530.795 521.578 531.611 518.249 531.611C512.218 531.611 507.82 528.658 506.124 524.386L509.642 522.312C510.835 525.579 514.039 527.59 518.249 527.59C522.332 527.59 525.473 526.019 525.473 522.563C525.473 519.736 522.583 518.165 519.002 517.223C513.725 515.903 507.129 514.458 507.129 507.672C507.129 505.096 508.134 502.96 510.144 501.263C512.218 499.567 514.793 498.687 517.872 498.687C522.96 498.687 527.044 501.138 528.866 505.096L525.41 507.107C524.217 504.154 521.704 502.708 517.872 502.708C514.291 502.708 511.275 504.468 511.275 507.672Z" fill="#F9FBFB"/>
<path d="M483.291 498.687C487.94 498.687 491.709 500.321 494.536 503.651C497.426 506.918 498.871 510.814 498.871 515.275C498.871 515.715 498.808 516.406 498.745 517.223H471.166C471.983 523.569 476.946 527.59 483.668 527.59C488.442 527.59 492.023 525.454 493.782 522.249L497.426 524.386C494.662 528.847 489.699 531.611 483.605 531.611C478.642 531.611 474.621 530.041 471.543 526.962C468.465 523.883 466.894 519.925 466.894 515.149C466.894 510.437 468.402 506.541 471.48 503.4C474.558 500.258 478.453 498.687 483.291 498.687ZM483.291 502.708C476.757 502.708 471.983 506.981 471.166 513.201H494.599C494.159 509.871 492.903 507.295 490.767 505.473C488.631 503.651 486.118 502.708 483.291 502.708Z" fill="#F9FBFB"/>
<path d="M444.679 498.687C452.281 498.687 456.992 503.714 456.992 511.568V530.857H452.846V511.568C452.846 505.976 449.768 502.708 444.302 502.708C438.271 502.708 434.125 506.415 434.125 514.395V530.857H429.979V499.441H434.125V504.342C436.449 500.572 439.967 498.687 444.679 498.687Z" fill="#F9FBFB"/>
<path d="M417.41 530.857H413.264V484.99H417.41V530.857Z" fill="#F9FBFB"/>
<path d="M400.696 530.857H396.55V484.99H400.696V530.857Z" fill="#F9FBFB"/>
<path d="M370.605 498.687C375.254 498.687 379.023 500.321 381.85 503.651C384.74 506.918 386.185 510.814 386.185 515.275C386.185 515.715 386.122 516.406 386.06 517.223H358.48C359.297 523.569 364.26 527.59 370.982 527.59C375.757 527.59 379.338 525.454 381.097 522.249L384.74 524.386C381.976 528.847 377.013 531.611 370.919 531.611C365.956 531.611 361.936 530.041 358.857 526.962C355.779 523.883 354.208 519.925 354.208 515.149C354.208 510.437 355.716 506.541 358.795 503.4C361.873 500.258 365.768 498.687 370.605 498.687ZM370.605 502.708C364.072 502.708 359.297 506.981 358.48 513.201H381.913C381.473 509.871 380.217 507.295 378.081 505.473C375.945 503.651 373.432 502.708 370.605 502.708Z" fill="#F9FBFB"/>
<path d="M308.761 530.857H303.484L290.731 486.875H295.38L306.248 524.888L317.682 486.875H322.833L334.267 524.888L345.135 486.875H349.784L337.031 530.857H331.754L320.258 492.655L308.761 530.857Z" fill="#F9FBFB"/>
<path d="M707.94 375.59H580.199C585.959 396.953 601.885 407.465 627.975 407.465C644.578 407.465 657.454 401.701 665.924 390.51L701.163 410.856C684.56 434.932 659.825 447.139 627.297 447.139C599.174 447.139 576.811 438.662 559.869 421.707C542.927 404.752 534.456 383.39 534.456 357.618C534.456 332.186 542.927 310.824 559.53 293.869C576.133 276.575 597.818 268.098 623.909 268.098C648.644 268.098 669.313 276.575 685.238 293.869C701.502 311.163 709.634 332.186 709.634 357.618C709.634 363.383 708.956 369.148 707.94 375.59ZM579.521 341.681H665.924C660.842 318.623 643.9 307.433 623.909 307.433C600.529 307.433 584.604 319.979 579.521 341.681Z" fill="#F9FBFB"/>
<path d="M482.238 272.845V302.007C490.37 280.305 510.7 269.454 533.741 269.454V318.284C520.526 316.588 508.328 319.301 497.824 326.422C487.32 333.543 482.238 345.072 482.238 361.348V442.392H438.528V272.845H482.238Z" fill="#F9FBFB"/>
<path d="M370.535 292.852V272.845H414.245V442.392H370.535V422.385C357.321 439.001 339.023 447.139 315.305 447.139C292.603 447.139 273.289 438.662 257.025 421.368C241.1 404.074 232.968 382.711 232.968 357.618C232.968 332.526 241.1 311.502 257.025 294.208C273.289 276.914 292.603 268.098 315.305 268.098C339.023 268.098 357.321 276.236 370.535 292.852ZM289.892 392.206C298.702 401.022 309.884 405.431 323.437 405.431C336.99 405.431 348.172 401.022 356.982 392.206C366.13 383.05 370.535 371.521 370.535 357.618C370.535 343.716 366.13 332.186 356.982 323.37C348.172 314.215 336.99 309.806 323.437 309.806C309.884 309.806 298.702 314.215 289.892 323.37C281.083 332.186 276.678 343.716 276.678 357.618C276.678 371.521 281.083 383.05 289.892 392.206Z" fill="#F9FBFB"/>
<path d="M123.336 447.139C87.7584 447.139 58.2797 435.271 34.9 411.534C11.5204 387.798 0 358.636 0 323.709C0 288.782 11.5204 259.281 34.9 235.884C58.2797 212.147 87.7584 200.279 123.336 200.279C166.368 200.279 204.995 221.981 225.325 256.23L185.004 279.627C173.145 258.264 150.443 245.718 123.336 245.718C100.295 245.718 81.6593 252.839 67.4282 267.42C53.536 282.001 46.4204 300.651 46.4204 323.709C46.4204 346.428 53.536 365.078 67.4282 379.659C81.6593 394.24 100.295 401.361 123.336 401.361C150.443 401.361 173.822 388.476 185.004 367.791L225.325 391.189C204.995 425.437 166.707 447.139 123.336 447.139Z" fill="#F9FBFB"/>
<path d="M833.822 248.494H789.944V0H833.822V248.494Z" fill="#F9FBFB"/>
<path d="M765.302 248.494H721.424V0H765.302V248.494Z" fill="#F9FBFB"/>
<path d="M706.005 182.522H577.771C583.553 203.967 599.54 214.519 625.731 214.519C642.398 214.519 655.324 208.733 663.827 197.499L699.202 217.923C682.535 242.092 657.705 254.347 625.051 254.347C596.819 254.347 574.369 245.837 557.362 228.816C540.355 211.796 531.851 190.351 531.851 164.48C531.851 138.95 540.355 117.505 557.022 100.484C573.689 83.1238 595.458 74.6138 621.649 74.6138C646.48 74.6138 667.229 83.1238 683.216 100.484C699.543 117.845 707.706 138.95 707.706 164.48C707.706 170.267 707.026 176.054 706.005 182.522ZM577.091 148.481H663.827C658.725 125.334 641.718 114.101 621.649 114.101C598.179 114.101 582.193 126.695 577.091 148.481Z" fill="#F9FBFB"/>
<path d="M317.137 248.494H263.734L197.066 10.2122H246.387L291.966 186.881L341.627 10.2122H381.764L431.765 186.881L477.345 10.2122H526.666L459.997 248.494H406.595L361.696 91.2281L317.137 248.494Z" fill="#F9FBFB"/>
<path d="M895.444 333.1L870.756 368.955C882.383 369.271 891.78 373.062 898.948 380.169C906.115 387.277 909.779 396.28 909.779 407.337C909.779 418.551 905.956 427.87 898.47 435.136C890.984 442.244 881.268 445.877 869.322 445.877C857.376 445.877 847.66 442.244 840.174 435.136C832.688 428.028 829.025 418.709 829.025 407.337C829.025 398.966 831.255 391.542 835.555 385.066L870.278 333.1H895.444ZM887.958 407.337C887.958 396.596 879.994 389.489 869.322 389.489C858.65 389.489 850.846 396.438 850.846 407.337C850.846 418.235 858.65 425.343 869.322 425.343C879.994 425.343 887.958 418.235 887.958 407.337Z" fill="#F9FBFB"/>
<path d="M811.979 351.107L791.102 377.958C806.242 382.381 816.601 393.911 816.601 409.548C816.601 420.921 812.776 429.766 804.967 436.242C797.317 442.718 787.914 445.877 776.758 445.877C759.387 445.877 744.725 437.821 738.509 422.5L757.315 411.759C760.024 420.289 766.558 424.553 776.758 424.553C788.073 424.553 794.608 418.867 794.608 409.548C794.608 400.545 788.073 394.543 776.758 394.543H771.977L763.53 381.907L785.524 353.476H741.856V333.1H811.979V351.107Z" fill="#F9FBFB"/>
<path d="M946.64 351.156C939.433 367.025 937.754 376.405 939.676 394.133H923.427C923.427 394.133 928.572 356.28 943.158 338.379C950.057 329.912 954.81 325.611 964.05 319.794C977.397 311.392 1002.35 307.017 1002.35 307.017C1002.35 307.017 975.856 307.257 961.729 315.148C951.638 320.784 939.676 334.894 939.676 334.894C939.676 334.894 945.307 315.05 953.604 305.855C962.844 295.617 974.674 289.415 988.424 288.432C1004.67 287.271 1022.08 290.755 1040.65 286.109C1050.69 283.598 1060.39 275.655 1060.39 275.655C1060.39 275.655 1065.03 316.309 1026.73 340.702C996.135 360.184 946.64 351.156 946.64 351.156Z" fill="#F9FBFB"/>
<path d="M960.308 373.225C970.913 373.225 979.935 376.393 987.216 382.888C994.497 389.224 998.138 398.094 998.138 409.499C998.138 420.903 994.339 429.774 986.584 436.269C978.986 442.763 969.646 445.933 958.567 445.933C940.681 445.933 926.118 437.854 919.945 422.172L938.622 411.241C941.313 420.112 947.962 424.549 958.567 424.549C969.805 424.549 976.294 418.845 976.294 409.499C976.294 400.47 969.804 394.19 959.199 394.19L939.676 394.133C938.765 385.727 938.623 379.459 939.536 373.225H960.308Z" fill="#F9FBFB"/>
</svg>
